<?xml version="1.0" encoding="utf-8"?>
<!-- Generator: Adobe Illustrator 21.0.2, SVG Export Plug-In . SVG Version: 6.00 Build 0)  -->
<svg version="1.1" xmlns="http://www.w3.org/2000/svg" xmlns:xlink="http://www.w3.org/1999/xlink" x="0px" y="0px"
	 viewBox="0 0 302.1 150.8" style="enable-background:new 0 0 302.1 150.8;" xml:space="preserve">
<style type="text/css">
	.st0{display:none;}
	.st1{display:inline;}
	.st2{fill:#FFEF00;}
	.st3{fill:#FFFFFF;}
</style>
<g id="MAC_1_Block_A" class="st0">
	<g class="st1">
		<rect x="-0.2" y="-0.4" class="st2" width="151.1" height="151.1"/>
		<path d="M147.5,3v144.4H3.1V3H147.5 M150.9-0.4H-0.2v151.1h151.1V-0.4L150.9-0.4z"/>
	</g>
	<g class="st1">
		<path d="M110.2,101.8L110.2,101.8H55.3c-0.8,0-1.5,0-2.3-0.1c-2.3-0.2-4.4-0.7-6.5-1.4c-1.1-0.4-2.1-0.8-3.1-1.3l-5,10.1
			c1,0.5,2,1,3.1,1.4c3.2,1.3,6.6,2.1,10.2,2.4c0.6,0.1,1.2,0.1,1.8,0.1c0.6,0,1.2,0,1.8,0l0,0h60.5L110.2,101.8z"/>
		<g>
			<polygon class="st3" points="70.4,97.9 85.5,97.9 108.2,52.5 93.1,52.5 			"/>
			<path d="M106.4,53.6L84.9,96.8H72.2l21.6-43.2H106.4 M108.2,52.5H93.1L70.4,97.9h15.1L108.2,52.5L108.2,52.5z"/>
		</g>
		<g>
			<polygon class="st3" points="17.5,113 32.6,113 62.9,52.5 47.7,52.5 			"/>
			<path d="M61,53.6l-29.1,58.3H19.3l29.1-58.3H61 M62.9,52.5H47.7L17.5,113h15.1L62.9,52.5L62.9,52.5z"/>
		</g>
		<polygon points="108.2,52.5 108.2,52.5 93.1,52.5 123.4,113 123.4,113 138.5,113 		"/>
		<polygon points="62.9,52.5 47.7,52.5 70.4,97.9 85.5,97.9 		"/>
		<path d="M100.7,37.3H55.3c-20.9,0-37.8,16.9-37.8,37.8c0,8.5,2.8,16.4,7.6,22.7L31,86c-1.5-3.3-2.3-6.9-2.3-10.8
			c0-14.7,11.9-26.6,26.6-26.6h51h0L100.7,37.3z"/>
		<polygon points="93.1,98 108.2,98 100.7,82.8 		"/>
	</g>
</g>
<g id="MAC_Logo">
	<rect x="3.5" y="3.6" width="143.7" height="143.7"/>
	<g>
		<path class="st2" d="M-0.2-0.1v151.1h302.1V-0.1H-0.2z M147.5,147.6H3.1V3.2h144.4V147.6z"/>
	</g>
	<path d="M190.9,37.6v2.5h0.1c0.7-1,1.5-1.7,2.5-2.3c1-0.5,2.1-0.8,3.3-0.8c1.2,0,2.3,0.2,3.3,0.7c1,0.5,1.7,1.3,2.2,2.4
		c0.6-0.8,1.3-1.5,2.3-2.2c1-0.6,2.1-0.9,3.4-0.9c1,0,1.9,0.1,2.8,0.4c0.8,0.2,1.6,0.6,2.2,1.2s1.1,1.2,1.4,2.1
		c0.3,0.9,0.5,1.9,0.5,3.1v12.6h-5.2V45.8c0-0.6,0-1.2-0.1-1.8c0-0.6-0.2-1-0.4-1.5c-0.2-0.4-0.5-0.7-1-1c-0.4-0.2-1-0.4-1.7-0.4
		s-1.3,0.1-1.8,0.4c-0.4,0.3-0.8,0.6-1.1,1.1c-0.3,0.4-0.4,1-0.5,1.5s-0.1,1.1-0.1,1.7v10.5h-5.2V45.9c0-0.6,0-1.1,0-1.7
		c0-0.5-0.1-1-0.3-1.5s-0.5-0.8-0.9-1.1c-0.4-0.3-1-0.4-1.9-0.4c-0.2,0-0.6,0.1-1,0.2c-0.4,0.1-0.8,0.3-1.2,0.6s-0.7,0.7-1,1.3
		c-0.3,0.6-0.4,1.3-0.4,2.2v10.9H186V37.6H190.9z"/>
	<path d="M217.7,43.4c0.1-1.2,0.4-2.2,0.9-3c0.5-0.8,1.2-1.4,2-1.9s1.7-0.8,2.8-1c1-0.2,2.1-0.3,3.1-0.3c0.9,0,1.9,0.1,2.9,0.2
		c1,0.1,1.9,0.4,2.7,0.8c0.8,0.4,1.5,0.9,2,1.6c0.5,0.7,0.8,1.6,0.8,2.7v9.8c0,0.8,0,1.7,0.1,2.4c0.1,0.8,0.3,1.4,0.5,1.7h-5.2
		c-0.1-0.3-0.2-0.6-0.2-0.9c-0.1-0.3-0.1-0.6-0.1-0.9c-0.8,0.8-1.8,1.4-2.9,1.8c-1.1,0.3-2.3,0.5-3.4,0.5c-0.9,0-1.7-0.1-2.5-0.3
		c-0.8-0.2-1.5-0.6-2-1s-1-1-1.4-1.7c-0.3-0.7-0.5-1.5-0.5-2.5c0-1.1,0.2-1.9,0.6-2.6c0.4-0.7,0.9-1.2,1.5-1.7
		c0.6-0.4,1.3-0.7,2-0.9c0.8-0.2,1.5-0.4,2.3-0.5c0.8-0.1,1.5-0.2,2.3-0.3c0.8-0.1,1.4-0.2,2-0.3c0.6-0.1,1-0.4,1.4-0.6
		c0.3-0.3,0.5-0.7,0.5-1.2c0-0.6-0.1-1-0.3-1.3c-0.2-0.3-0.4-0.6-0.7-0.8c-0.3-0.2-0.7-0.3-1.1-0.4c-0.4-0.1-0.8-0.1-1.3-0.1
		c-1,0-1.8,0.2-2.4,0.7s-0.9,1.2-1,2.2H217.7z M229.6,47.2c-0.2,0.2-0.5,0.3-0.8,0.5c-0.3,0.1-0.7,0.2-1.1,0.3
		c-0.4,0.1-0.8,0.1-1.2,0.2c-0.4,0-0.8,0.1-1.2,0.2c-0.4,0.1-0.8,0.2-1.1,0.3c-0.4,0.1-0.7,0.3-1,0.5c-0.3,0.2-0.5,0.5-0.7,0.8
		c-0.2,0.3-0.3,0.7-0.3,1.2c0,0.5,0.1,0.8,0.3,1.2c0.2,0.3,0.4,0.6,0.7,0.7c0.3,0.2,0.6,0.3,1,0.4c0.4,0.1,0.8,0.1,1.2,0.1
		c1,0,1.8-0.2,2.4-0.5c0.6-0.3,1-0.7,1.2-1.2s0.4-0.9,0.5-1.4c0.1-0.5,0.1-0.9,0.1-1.2V47.2z"/>
	<path d="M246.2,41c-0.8,0-1.5,0.2-2,0.6c-0.5,0.4-1,0.9-1.3,1.5c-0.3,0.6-0.6,1.2-0.7,2c-0.1,0.7-0.2,1.4-0.2,2.1
		c0,0.7,0.1,1.4,0.2,2.1c0.1,0.7,0.4,1.3,0.7,1.9c0.3,0.6,0.7,1,1.3,1.4c0.5,0.4,1.2,0.5,2,0.5c1.2,0,2.1-0.3,2.7-1
		c0.6-0.7,1-1.6,1.2-2.8h4.8c-0.3,2.5-1.3,4.4-2.8,5.7s-3.5,2-5.9,2c-1.3,0-2.6-0.2-3.7-0.7c-1.1-0.5-2.1-1.1-2.9-2
		c-0.8-0.8-1.4-1.9-1.8-3c-0.4-1.2-0.7-2.5-0.7-3.9c0-1.5,0.2-2.8,0.6-4c0.4-1.2,1-2.3,1.8-3.2s1.8-1.6,2.9-2.1
		c1.1-0.5,2.4-0.8,3.9-0.8c1.1,0,2.1,0.1,3.1,0.4c1,0.3,1.9,0.7,2.6,1.3c0.8,0.6,1.4,1.3,1.9,2.2s0.8,1.9,0.8,3.1h-4.8
		C249.5,42.1,248.3,41,246.2,41z"/>
	<g>
		<path d="M190.1,64c0.8,0,1.4,0.1,1.9,0.4c0.5,0.3,0.9,0.6,1.1,1.1c0.3,0.5,0.5,1.1,0.6,1.8c0.1,0.7,0.1,1.4,0.1,2.3
			c0,1-0.1,1.9-0.2,2.6c-0.1,0.7-0.3,1.4-0.6,1.8c-0.3,0.5-0.7,0.8-1.2,1.1c-0.5,0.2-1.1,0.4-1.9,0.4h-3.6V64H190.1z M189.7,73.7
			c0.4,0,0.7-0.1,1-0.2s0.4-0.4,0.6-0.7c0.1-0.3,0.2-0.7,0.3-1.3c0-0.5,0.1-1.2,0.1-2c0-0.7,0-1.2-0.1-1.7s-0.1-0.9-0.3-1.2
			c-0.1-0.3-0.3-0.6-0.6-0.7c-0.3-0.2-0.6-0.2-1-0.2h-1v8H189.7z"/>
		<path d="M196.1,76.6c0.4,0,0.7-0.1,0.9-0.3c0.2-0.2,0.3-0.5,0.3-0.8l-2.4-8.6h2.3l1.3,6h0l1.1-6h2.2l-2.1,8
			c-0.2,0.7-0.4,1.3-0.6,1.7c-0.2,0.4-0.4,0.8-0.6,1s-0.5,0.4-0.9,0.5c-0.3,0.1-0.8,0.1-1.3,0.1h-0.9v-1.6
			C195.7,76.6,195.9,76.6,196.1,76.6z"/>
		<path d="M205,66.8v1h0c0.2-0.4,0.5-0.7,0.9-0.9c0.4-0.2,0.8-0.3,1.3-0.3c0.7,0,1.2,0.2,1.6,0.6c0.4,0.4,0.6,1,0.6,1.9v6.4h-2.2
			v-5.9c0-0.4-0.1-0.8-0.2-0.9c-0.1-0.2-0.4-0.3-0.7-0.3c-0.8,0-1.2,0.5-1.2,1.4v5.7h-2.2v-8.6H205z"/>
		<path d="M211,69.2c0-0.5,0.1-0.9,0.2-1.3s0.4-0.6,0.6-0.8c0.3-0.2,0.6-0.4,1-0.4c0.4-0.1,0.8-0.1,1.2-0.1c0.7,0,1.2,0.1,1.6,0.2
			c0.4,0.1,0.7,0.3,0.9,0.5c0.2,0.2,0.4,0.5,0.5,0.8s0.1,0.7,0.1,1.1v4.5c0,0.4,0,0.7,0.1,0.9c0,0.2,0.1,0.5,0.2,0.7h-2.1
			c-0.1-0.1-0.1-0.3-0.2-0.4c0-0.2-0.1-0.3-0.1-0.5h0c-0.3,0.4-0.6,0.7-0.9,0.9c-0.3,0.1-0.8,0.2-1.3,0.2c-0.4,0-0.7-0.1-1-0.2
			c-0.3-0.1-0.5-0.3-0.6-0.6s-0.3-0.5-0.4-0.8c-0.1-0.3-0.1-0.6-0.1-0.9c0-0.4,0-0.8,0.1-1s0.2-0.5,0.4-0.8c0.2-0.2,0.4-0.4,0.7-0.5
			c0.3-0.1,0.6-0.3,1-0.4l1.2-0.3c0.3-0.1,0.6-0.2,0.7-0.4s0.2-0.4,0.2-0.7c0-0.3-0.1-0.6-0.2-0.8c-0.2-0.2-0.4-0.3-0.8-0.3
			c-0.3,0-0.6,0.1-0.8,0.3s-0.3,0.5-0.3,0.8v0.2h-2V69.2z M214.6,71.4c-0.2,0.1-0.3,0.1-0.5,0.2c-0.4,0.1-0.8,0.3-1,0.5
			c-0.2,0.2-0.3,0.5-0.3,0.9c0,0.3,0.1,0.6,0.2,0.8c0.1,0.2,0.3,0.4,0.6,0.4c0.1,0,0.3,0,0.5-0.1s0.3-0.1,0.4-0.2
			c0.1-0.1,0.2-0.2,0.3-0.4c0.1-0.2,0.1-0.4,0.1-0.6v-1.7C214.9,71.2,214.7,71.3,214.6,71.4z"/>
		<path d="M220.8,66.8v0.9h0c0.3-0.4,0.6-0.7,0.9-0.8c0.3-0.2,0.8-0.3,1.2-0.3c0.5,0,0.9,0.1,1.3,0.4c0.3,0.2,0.6,0.6,0.7,1h0
			c0.2-0.5,0.4-0.8,0.8-1s0.8-0.3,1.4-0.3c0.7,0,1.3,0.2,1.6,0.7c0.3,0.4,0.5,1.1,0.5,1.9v6.3h-2.2v-6c0-0.4-0.1-0.6-0.2-0.8
			c-0.1-0.2-0.4-0.3-0.7-0.3c-0.4,0-0.6,0.1-0.8,0.4c-0.2,0.2-0.3,0.6-0.3,1.1v5.7H223v-6c0-0.4-0.1-0.6-0.2-0.8
			c-0.1-0.2-0.4-0.3-0.7-0.3c-0.4,0-0.6,0.1-0.8,0.4c-0.2,0.2-0.3,0.6-0.3,1.1v5.7h-2.2v-8.6H220.8z"/>
		<path d="M233.3,63.9v1.9h-2.2v-1.9H233.3z M233.3,66.8v8.6h-2.2v-8.6H233.3z"/>
		<path d="M239.1,69.3c0-0.2-0.1-0.4-0.1-0.6c-0.1-0.2-0.2-0.3-0.3-0.4c-0.1-0.1-0.3-0.2-0.5-0.2c-0.3,0-0.5,0.1-0.7,0.2
			c-0.2,0.1-0.3,0.3-0.4,0.5c-0.1,0.2-0.1,0.5-0.2,0.9c0,0.4,0,0.8,0,1.3c0,0.5,0,1,0,1.4c0,0.4,0.1,0.7,0.2,0.9
			c0.1,0.2,0.2,0.4,0.4,0.5s0.4,0.2,0.6,0.2c0.4,0,0.6-0.2,0.8-0.5c0.2-0.3,0.3-0.8,0.3-1.5h2.1c0,1.1-0.3,2-0.8,2.6
			c-0.5,0.6-1.3,0.9-2.5,0.9c-0.6,0-1-0.1-1.4-0.2c-0.4-0.1-0.8-0.4-1-0.7s-0.5-0.8-0.6-1.4c-0.1-0.6-0.2-1.3-0.2-2.2
			c0-0.9,0.1-1.6,0.3-2.2c0.2-0.6,0.4-1,0.7-1.4c0.3-0.3,0.7-0.6,1.1-0.7s0.9-0.2,1.4-0.2c1,0,1.8,0.3,2.3,0.9
			c0.5,0.6,0.8,1.4,0.8,2.4h-2.1C239.1,69.7,239.1,69.5,239.1,69.3z"/>
		<path d="M190.8,85c-0.2-0.4-0.6-0.6-1.1-0.6c-0.3,0-0.5,0.1-0.7,0.2c-0.2,0.2-0.3,0.4-0.4,0.8s-0.2,0.8-0.2,1.4
			c0,0.6-0.1,1.2-0.1,2.1c0,0.9,0,1.6,0.1,2.1c0.1,0.5,0.1,0.9,0.3,1.2c0.1,0.3,0.3,0.5,0.5,0.6s0.4,0.2,0.6,0.2
			c0.2,0,0.4,0,0.6-0.1c0.2-0.1,0.3-0.2,0.5-0.4s0.2-0.5,0.3-0.9c0.1-0.4,0.1-0.9,0.1-1.5h2.3c0,0.6,0,1.2-0.1,1.8
			c-0.1,0.6-0.3,1-0.5,1.5c-0.3,0.4-0.6,0.7-1.1,1c-0.5,0.2-1.1,0.4-1.8,0.4c-0.9,0-1.6-0.1-2.1-0.4s-0.9-0.7-1.2-1.2
			c-0.3-0.5-0.4-1.1-0.5-1.9c-0.1-0.7-0.1-1.5-0.1-2.4c0-0.9,0-1.7,0.1-2.4c0.1-0.7,0.3-1.4,0.5-1.9c0.3-0.5,0.7-0.9,1.2-1.2
			c0.5-0.3,1.2-0.4,2.1-0.4c0.8,0,1.5,0.1,1.9,0.4s0.8,0.6,1.1,1c0.2,0.4,0.4,0.9,0.4,1.3s0.1,0.9,0.1,1.3h-2.3
			C191.1,86,191,85.4,190.8,85z"/>
		<path d="M194.7,88.2c0.1-0.6,0.3-1,0.6-1.4c0.3-0.4,0.6-0.7,1-0.9c0.4-0.2,1-0.3,1.6-0.3c0.7,0,1.2,0.1,1.6,0.3s0.8,0.5,1,0.9
			c0.3,0.4,0.4,0.9,0.5,1.4s0.2,1.2,0.2,2c0,0.7-0.1,1.4-0.2,2c-0.1,0.6-0.3,1-0.6,1.4c-0.3,0.4-0.6,0.7-1,0.8
			c-0.4,0.2-1,0.3-1.6,0.3c-0.7,0-1.2-0.1-1.6-0.2s-0.8-0.5-1-0.8s-0.4-0.9-0.5-1.4s-0.2-1.2-0.2-2
			C194.6,89.4,194.6,88.7,194.7,88.2z M196.8,91.3c0,0.4,0.1,0.7,0.2,1s0.2,0.5,0.4,0.6s0.4,0.2,0.6,0.2c0.4,0,0.8-0.2,0.9-0.7
			c0.2-0.5,0.3-1.2,0.3-2.3c0-1.1-0.1-1.8-0.3-2.3c-0.2-0.5-0.5-0.7-0.9-0.7c-0.3,0-0.5,0.1-0.6,0.2s-0.3,0.4-0.4,0.6
			s-0.1,0.6-0.2,1c0,0.4,0,0.8,0,1.2C196.8,90.5,196.8,90.9,196.8,91.3z"/>
		<path d="M204.7,85.8v1h0c0.2-0.4,0.5-0.7,0.9-0.9s0.8-0.3,1.3-0.3c0.7,0,1.2,0.2,1.6,0.6c0.4,0.4,0.6,1,0.6,1.9v6.4h-2.2v-5.9
			c0-0.4-0.1-0.8-0.2-0.9s-0.4-0.3-0.7-0.3c-0.8,0-1.2,0.5-1.2,1.4v5.7h-2.2v-8.6H204.7z"/>
		<path d="M212.2,91.9c0,0.4,0.1,0.7,0.3,0.9s0.5,0.3,0.9,0.3c0.3,0,0.6-0.1,0.8-0.3c0.2-0.2,0.3-0.4,0.3-0.8c0-0.3-0.1-0.5-0.2-0.6
			c-0.2-0.1-0.3-0.3-0.6-0.3l-1.6-0.6c-0.6-0.2-1.1-0.5-1.4-0.9c-0.3-0.4-0.5-0.9-0.5-1.5c0-0.4,0.1-0.7,0.2-1s0.3-0.6,0.6-0.8
			c0.3-0.2,0.6-0.4,1-0.6c0.4-0.1,0.9-0.2,1.4-0.2c1,0,1.7,0.2,2.2,0.6c0.5,0.4,0.7,1,0.7,1.8v0.4h-2c0-0.4-0.1-0.8-0.2-1
			c-0.1-0.2-0.4-0.3-0.8-0.3c-0.3,0-0.5,0.1-0.7,0.2c-0.2,0.2-0.3,0.4-0.3,0.7c0,0.2,0.1,0.4,0.2,0.6s0.4,0.3,0.8,0.4l1.3,0.4
			c0.7,0.2,1.2,0.5,1.5,0.9c0.3,0.4,0.4,0.9,0.4,1.5c0,0.5-0.1,0.9-0.2,1.2s-0.4,0.6-0.7,0.8s-0.6,0.4-1,0.5
			c-0.4,0.1-0.8,0.1-1.3,0.1c-0.6,0-1.1-0.1-1.5-0.2c-0.4-0.1-0.7-0.3-1-0.5c-0.2-0.2-0.4-0.5-0.5-0.9c-0.1-0.3-0.1-0.7-0.1-1.1
			v-0.3h2V91.9z"/>
		<path d="M220.4,83.3v2.5h1.3v1.5h-1.3V92c0,0.3,0.1,0.6,0.2,0.7c0.1,0.1,0.3,0.2,0.6,0.2c0.1,0,0.2,0,0.3,0c0.1,0,0.2,0,0.2,0v1.5
			c-0.2,0-0.5,0-0.7,0c-0.2,0-0.5,0-0.7,0c-0.4,0-0.8,0-1-0.1c-0.3-0.1-0.5-0.2-0.6-0.4c-0.1-0.2-0.2-0.4-0.3-0.7
			c-0.1-0.3-0.1-0.7-0.1-1.1v-4.9h-1.1v-1.5h1.1v-2.5H220.4z"/>
		<path d="M224.8,85.8V87h0c0.2-0.4,0.5-0.7,0.8-1s0.7-0.4,1.2-0.4c0.1,0,0.1,0,0.2,0c0.1,0,0.1,0,0.2,0v2.1c-0.1,0-0.2,0-0.3,0
			c-0.1,0-0.2,0-0.3,0c-0.2,0-0.4,0-0.6,0.1c-0.2,0.1-0.4,0.1-0.5,0.3c-0.2,0.1-0.3,0.3-0.4,0.5c-0.1,0.2-0.1,0.4-0.1,0.7v5.2h-2.2
			v-8.6H224.8z"/>
		<path d="M232.6,93.4c-0.2,0.4-0.5,0.7-0.9,0.9c-0.4,0.2-0.8,0.3-1.3,0.3c-0.7,0-1.2-0.2-1.6-0.6s-0.6-1-0.6-1.8v-6.4h2.2v5.9
			c0,0.4,0.1,0.8,0.2,0.9s0.4,0.3,0.7,0.3c0.8,0,1.2-0.5,1.2-1.4v-5.7h2.2v8.6h-2.1L232.6,93.4L232.6,93.4z"/>
		<path d="M240.4,88.3c0-0.2-0.1-0.4-0.1-0.6c-0.1-0.2-0.2-0.3-0.3-0.4s-0.3-0.2-0.5-0.2c-0.3,0-0.5,0.1-0.7,0.2
			c-0.2,0.1-0.3,0.3-0.4,0.5c-0.1,0.2-0.1,0.5-0.2,0.9c0,0.4,0,0.8,0,1.3c0,0.5,0,1,0,1.4s0.1,0.7,0.2,0.9c0.1,0.2,0.2,0.4,0.4,0.5
			c0.2,0.1,0.4,0.2,0.6,0.2c0.4,0,0.6-0.2,0.8-0.5c0.2-0.3,0.3-0.8,0.3-1.5h2.1c0,1.1-0.3,2-0.8,2.6c-0.5,0.6-1.3,0.9-2.5,0.9
			c-0.6,0-1-0.1-1.4-0.2c-0.4-0.1-0.8-0.4-1-0.7c-0.3-0.3-0.5-0.8-0.6-1.4c-0.1-0.6-0.2-1.3-0.2-2.2c0-0.9,0.1-1.6,0.3-2.2
			c0.2-0.6,0.4-1,0.7-1.4s0.7-0.6,1.1-0.7c0.4-0.1,0.9-0.2,1.4-0.2c1,0,1.8,0.3,2.3,0.9c0.5,0.6,0.8,1.4,0.8,2.4h-2.1
			C240.4,88.7,240.4,88.5,240.4,88.3z"/>
		<path d="M246.4,83.3v2.5h1.3v1.5h-1.3V92c0,0.3,0.1,0.6,0.2,0.7c0.1,0.1,0.3,0.2,0.6,0.2c0.1,0,0.2,0,0.3,0c0.1,0,0.2,0,0.2,0v1.5
			c-0.2,0-0.5,0-0.7,0c-0.2,0-0.5,0-0.7,0c-0.4,0-0.8,0-1-0.1c-0.3-0.1-0.5-0.2-0.6-0.4c-0.1-0.2-0.2-0.4-0.3-0.7
			c-0.1-0.3-0.1-0.7-0.1-1.1v-4.9h-1.1v-1.5h1.1v-2.5H246.4z"/>
		<path d="M250.9,82.9v1.9h-2.2v-1.9H250.9z M250.9,85.8v8.6h-2.2v-8.6H250.9z"/>
		<path d="M252.5,88.2c0.1-0.6,0.3-1,0.6-1.4c0.3-0.4,0.6-0.7,1-0.9c0.4-0.2,1-0.3,1.6-0.3c0.7,0,1.2,0.1,1.6,0.3s0.8,0.5,1,0.9
			c0.3,0.4,0.4,0.9,0.5,1.4s0.2,1.2,0.2,2c0,0.7-0.1,1.4-0.2,2c-0.1,0.6-0.3,1-0.6,1.4c-0.3,0.4-0.6,0.7-1,0.8
			c-0.4,0.2-1,0.3-1.6,0.3c-0.7,0-1.2-0.1-1.6-0.2s-0.8-0.5-1-0.8s-0.4-0.9-0.5-1.4s-0.2-1.2-0.2-2
			C252.3,89.4,252.3,88.7,252.5,88.2z M254.5,91.3c0,0.4,0.1,0.7,0.2,1s0.2,0.5,0.4,0.6s0.4,0.2,0.6,0.2c0.4,0,0.8-0.2,0.9-0.7
			c0.2-0.5,0.3-1.2,0.3-2.3c0-1.1-0.1-1.8-0.3-2.3c-0.2-0.5-0.5-0.7-0.9-0.7c-0.3,0-0.5,0.1-0.6,0.2s-0.3,0.4-0.4,0.6
			s-0.1,0.6-0.2,1c0,0.4,0,0.8,0,1.2C254.5,90.5,254.5,90.9,254.5,91.3z"/>
		<path d="M262.4,85.8v1h0c0.2-0.4,0.5-0.7,0.9-0.9s0.8-0.3,1.3-0.3c0.7,0,1.2,0.2,1.6,0.6c0.4,0.4,0.6,1,0.6,1.9v6.4h-2.2v-5.9
			c0-0.4-0.1-0.8-0.2-0.9c-0.2-0.2-0.4-0.3-0.7-0.3c-0.8,0-1.2,0.5-1.2,1.4v5.7h-2.2v-8.6H262.4z"/>
		<path d="M190.3,102c0.6,0,1.1,0.1,1.5,0.3c0.4,0.2,0.7,0.5,1,0.8c0.2,0.3,0.4,0.7,0.5,1.1c0.1,0.4,0.2,0.8,0.2,1.3
			c0,0.6-0.1,1.1-0.3,1.5c-0.2,0.4-0.4,0.8-0.7,1.1c-0.3,0.3-0.7,0.5-1.1,0.6c-0.4,0.1-0.9,0.2-1.5,0.2h-1.2v4.6h-2.3V102H190.3z
			 M189.6,107.2c0.5,0,0.8-0.1,1.1-0.4c0.3-0.3,0.4-0.7,0.4-1.3c0-0.6-0.1-1-0.4-1.3c-0.2-0.3-0.7-0.4-1.2-0.4h-1v3.5H189.6z"/>
		<path d="M196.3,110.1c0,0.3,0,0.5,0.1,0.7c0,0.2,0.1,0.5,0.2,0.6c0.1,0.2,0.2,0.3,0.3,0.4s0.3,0.2,0.5,0.2c0.4,0,0.6-0.1,0.8-0.4
			c0.2-0.3,0.3-0.7,0.4-1.2h2c0,1-0.3,1.8-0.8,2.3c-0.5,0.5-1.3,0.8-2.3,0.8c-0.8,0-1.4-0.1-1.9-0.4s-0.8-0.6-1-1.1
			c-0.2-0.4-0.3-0.9-0.4-1.5s-0.1-1.1-0.1-1.6c0-0.6,0-1.1,0.1-1.7s0.2-1,0.5-1.4c0.2-0.4,0.6-0.7,1-1c0.4-0.2,1-0.4,1.8-0.4
			c0.6,0,1.2,0.1,1.6,0.3c0.4,0.2,0.7,0.5,1,0.9c0.2,0.4,0.4,0.8,0.5,1.4c0.1,0.5,0.1,1.1,0.1,1.8v0.5h-4.4V110.1z M198.5,107.3
			c0-0.2-0.1-0.5-0.2-0.6s-0.2-0.3-0.3-0.4c-0.1-0.1-0.3-0.1-0.6-0.1c-0.2,0-0.4,0.1-0.6,0.2c-0.1,0.1-0.3,0.2-0.3,0.4
			c-0.1,0.2-0.1,0.3-0.2,0.6c0,0.2-0.1,0.4-0.1,0.6v0.3h2.3C198.5,107.8,198.5,107.5,198.5,107.3z"/>
		<path d="M201.9,107.2c0.1-0.6,0.3-1,0.6-1.4c0.3-0.4,0.6-0.7,1-0.9c0.4-0.2,1-0.3,1.6-0.3c0.7,0,1.2,0.1,1.6,0.3s0.8,0.5,1,0.9
			c0.3,0.4,0.4,0.9,0.5,1.4c0.1,0.6,0.2,1.2,0.2,2c0,0.7-0.1,1.4-0.2,2s-0.3,1-0.6,1.4c-0.3,0.4-0.6,0.7-1,0.8
			c-0.4,0.2-1,0.3-1.6,0.3c-0.7,0-1.2-0.1-1.6-0.2s-0.8-0.5-1-0.8c-0.3-0.4-0.4-0.9-0.5-1.4s-0.2-1.2-0.2-2
			C201.7,108.4,201.7,107.7,201.9,107.2z M203.9,110.3c0,0.4,0.1,0.7,0.2,1s0.2,0.5,0.4,0.6c0.2,0.1,0.4,0.2,0.6,0.2
			c0.4,0,0.8-0.2,0.9-0.7c0.2-0.5,0.3-1.2,0.3-2.3c0-1.1-0.1-1.8-0.3-2.3s-0.5-0.7-0.9-0.7c-0.3,0-0.5,0.1-0.6,0.2
			c-0.2,0.1-0.3,0.4-0.4,0.6s-0.1,0.6-0.2,1c0,0.4,0,0.8,0,1.2C203.9,109.5,203.9,109.9,203.9,110.3z"/>
		<path d="M211.8,104.8v0.9h0c0.2-0.4,0.5-0.7,0.8-0.9c0.3-0.2,0.7-0.3,1.1-0.3c0.9,0,1.6,0.4,2,1.1c0.4,0.7,0.6,1.9,0.6,3.5
			c0,1.6-0.2,2.7-0.6,3.4c-0.4,0.7-1.1,1-2,1c-0.4,0-0.8-0.1-1.1-0.2c-0.3-0.2-0.6-0.4-0.8-0.7h0v3.6h-2.2v-11.4H211.8z
			 M212.1,111.2c0.1,0.5,0.5,0.7,1,0.7c0.5,0,0.8-0.2,0.9-0.7c0.1-0.5,0.2-1.2,0.2-2.1c0-0.9-0.1-1.6-0.2-2.1
			c-0.1-0.5-0.5-0.7-0.9-0.7c-0.5,0-0.8,0.2-1,0.7c-0.1,0.5-0.2,1.2-0.2,2.1C211.9,110,211.9,110.7,212.1,111.2z"/>
		<path d="M219.9,102v11.4h-2.2V102H219.9z"/>
		<path d="M223.4,110.1c0,0.3,0,0.5,0.1,0.7c0,0.2,0.1,0.5,0.2,0.6c0.1,0.2,0.2,0.3,0.3,0.4s0.3,0.2,0.5,0.2c0.4,0,0.6-0.1,0.8-0.4
			c0.2-0.3,0.3-0.7,0.4-1.2h2c0,1-0.3,1.8-0.8,2.3c-0.5,0.5-1.3,0.8-2.3,0.8c-0.8,0-1.4-0.1-1.9-0.4s-0.8-0.6-1-1.1
			c-0.2-0.4-0.3-0.9-0.4-1.5s-0.1-1.1-0.1-1.6c0-0.6,0-1.1,0.1-1.7s0.2-1,0.5-1.4c0.2-0.4,0.6-0.7,1-1c0.4-0.2,1-0.4,1.8-0.4
			c0.6,0,1.2,0.1,1.6,0.3c0.4,0.2,0.7,0.5,1,0.9c0.2,0.4,0.4,0.8,0.5,1.4c0.1,0.5,0.1,1.1,0.1,1.8v0.5h-4.4V110.1z M225.6,107.3
			c0-0.2-0.1-0.5-0.2-0.6s-0.2-0.3-0.3-0.4c-0.1-0.1-0.3-0.1-0.6-0.1c-0.2,0-0.4,0.1-0.6,0.2c-0.1,0.1-0.3,0.2-0.3,0.4
			c-0.1,0.2-0.1,0.3-0.2,0.6c0,0.2-0.1,0.4-0.1,0.6v0.3h2.3C225.6,107.8,225.6,107.5,225.6,107.3z"/>
	</g>
	<path class="st2" d="M110.2,102L110.2,102H55.3c-0.8,0-1.5,0-2.3-0.1c-2.3-0.2-4.4-0.7-6.5-1.4c-1.1-0.4-2.1-0.8-3.1-1.3l-5,10.1
		c1,0.5,2,1,3.1,1.4c3.2,1.3,6.6,2.1,10.2,2.4c0.6,0.1,1.2,0.1,1.8,0.1c0.6,0,1.2,0,1.8,0l0,0h60.5L110.2,102z"/>
	<polygon class="st3" points="123.4,113.2 138.5,113.2 108.2,52.7 108.2,52.7 93.1,52.7 	"/>
	<polygon class="st3" points="47.7,52.7 70.4,98.1 85.5,98.1 62.9,52.7 	"/>
	<path class="st2" d="M100.7,37.6H55.3c-20.9,0-37.8,16.9-37.8,37.8c0,8.5,2.8,16.4,7.6,22.7l-7.6,15.1h0l0,0h15.1l22-44L47,54.1
		l-16,32c-1.5-3.3-2.3-6.9-2.3-10.8c0-14.7,11.9-26.6,26.6-26.6h51h0L100.7,37.6z"/>
	<polygon class="st2" points="93.1,98.2 108.2,98.2 100.7,83.1 	"/>
	<polygon class="st2" points="86.2,96.8 100,69.1 92.5,54 78.6,81.7 	"/>
</g>
</svg>
